<svg width="167" height="53" viewBox="0 0 167 53" fill="none" xmlns="http://www.w3.org/2000/svg">

<path d="M13 20.3333C13 18.4924 11.2091 17 9 17C6.79086 17 5 18.4924 5 20.3333V33.6667C5 35.5076 6.79086 37 9 37C11.2091 37 13 35.5076 13 33.6667V20.3333Z" fill="#2EC4A5"/>
<path d="M27 7C27 4.79086 25.2091 3 23 3C20.7909 3 19 4.79086 19 7V47C19 49.2091 20.7909 51 23 51C25.2091 51 27 49.2091 27 47V7Z" fill="#2EC4A5"/>
<path d="M41 20.3333C41 18.4924 39.2091 17 37 17C34.7909 17 33 18.4924 33 20.3333V33.6667C33 35.5076 34.7909 37 37 37C39.2091 37 41 35.5076 41 33.6667V20.3333Z" fill="#2EC4A5"/>
<path d="M62.512 39.432C60.688 39.432 59.056 39.036 57.616 38.244C56.2 37.428 55.084 36.312 54.268 34.896C53.476 33.48 53.08 31.848 53.08 30C53.08 28.152 53.476 26.52 54.268 25.104C55.06 23.688 56.164 22.584 57.58 21.792C58.996 20.976 60.616 20.568 62.44 20.568C64.288 20.568 65.92 20.976 67.336 21.792C68.752 22.584 69.856 23.688 70.648 25.104C71.44 26.52 71.836 28.152 71.836 30C71.836 31.848 71.44 33.48 70.648 34.896C69.856 36.312 68.752 37.428 67.336 38.244C65.944 39.036 64.336 39.432 62.512 39.432ZM62.512 35.04C63.4 35.04 64.18 34.824 64.852 34.392C65.524 33.96 66.04 33.372 66.4 32.628C66.784 31.86 66.976 30.984 66.976 30C66.976 29.016 66.784 28.152 66.4 27.408C66.016 26.64 65.476 26.04 64.78 25.608C64.108 25.176 63.328 24.96 62.44 24.96C61.576 24.96 60.796 25.176 60.1 25.608C59.428 26.04 58.9 26.64 58.516 27.408C58.132 28.152 57.94 29.016 57.94 30C57.94 30.984 58.132 31.86 58.516 32.628C58.9 33.372 59.44 33.96 60.136 34.392C60.832 34.824 61.624 35.04 62.512 35.04ZM86.85 39L86.562 35.688V21H91.314V39H86.85ZM74.646 30.216V21H79.398V30.216H74.646ZM79.398 30.216C79.398 31.416 79.53 32.364 79.794 33.06C80.082 33.732 80.478 34.224 80.982 34.536C81.51 34.824 82.098 34.968 82.746 34.968C83.994 34.992 84.942 34.62 85.59 33.852C86.238 33.06 86.562 31.92 86.562 30.432H88.182C88.182 32.352 87.894 33.984 87.318 35.328C86.742 36.648 85.95 37.668 84.942 38.388C83.934 39.084 82.746 39.432 81.378 39.432C79.938 39.432 78.714 39.144 77.706 38.568C76.698 37.992 75.93 37.104 75.402 35.904C74.898 34.68 74.646 33.108 74.646 31.188V30.216H79.398ZM102.847 39.432C100.855 39.432 99.3429 38.94 98.3109 37.956C97.3029 36.972 96.7989 35.568 96.7989 33.744V15.384H101.551V32.7C101.551 33.468 101.719 34.056 102.055 34.464C102.391 34.848 102.883 35.04 103.531 35.04C103.771 35.04 104.035 34.992 104.323 34.896C104.611 34.776 104.911 34.608 105.223 34.392L106.879 37.956C106.303 38.388 105.655 38.736 104.935 39C104.239 39.288 103.543 39.432 102.847 39.432ZM93.8829 25.032V21H106.051V25.032H93.8829ZM118.275 39.432C116.403 39.432 114.735 39.036 113.271 38.244C111.807 37.428 110.667 36.312 109.851 34.896C109.035 33.456 108.627 31.824 108.627 30C108.627 28.152 109.035 26.52 109.851 25.104C110.667 23.688 111.795 22.584 113.235 21.792C114.675 20.976 116.331 20.568 118.203 20.568C120.003 20.568 121.647 21.012 123.135 21.9C124.623 22.788 125.703 24.072 126.375 25.752L121.911 27.336C121.575 26.64 121.047 26.088 120.327 25.68C119.631 25.248 118.851 25.032 117.987 25.032C117.099 25.032 116.319 25.248 115.647 25.68C114.975 26.088 114.447 26.664 114.063 27.408C113.679 28.152 113.487 29.016 113.487 30C113.487 30.984 113.679 31.848 114.063 32.592C114.447 33.312 114.987 33.888 115.683 34.32C116.379 34.752 117.171 34.968 118.059 34.968C118.923 34.968 119.703 34.74 120.399 34.284C121.119 33.828 121.647 33.228 121.983 32.484L126.483 34.068C125.787 35.772 124.695 37.092 123.207 38.028C121.743 38.964 120.099 39.432 118.275 39.432ZM132.599 29.532C132.599 27.588 132.971 25.98 133.715 24.708C134.483 23.436 135.455 22.488 136.631 21.864C137.831 21.24 139.079 20.928 140.375 20.928V25.536C139.271 25.536 138.227 25.668 137.243 25.932C136.283 26.196 135.503 26.628 134.903 27.228C134.303 27.828 134.003 28.596 134.003 29.532H132.599ZM129.251 39V21H134.003V39H129.251ZM146.492 46.632C145.844 46.632 145.124 46.5 144.332 46.236C143.564 45.996 142.88 45.708 142.28 45.372L144.044 41.52C144.452 41.736 144.824 41.904 145.16 42.024C145.52 42.168 145.832 42.24 146.096 42.24C146.6 42.24 147.044 42.096 147.428 41.808C147.812 41.544 148.124 41.148 148.364 40.62L150.488 35.616L156.212 21H161.432L153.26 40.548C152.756 41.748 152.228 42.804 151.676 43.716C151.124 44.652 150.44 45.372 149.624 45.876C148.832 46.38 147.788 46.632 146.492 46.632ZM149.228 39L140.984 21H146.204L152.216 35.616L153.764 39H149.228Z" fill="#E6E4E3"/>
</svg>
