<svg width="36" height="48" viewBox="0 0 36 48" fill="none" xmlns="http://www.w3.org/2000/svg">
<path d="M8 17.3333C8 15.4924 6.20914 14 4 14C1.79086 14 0 15.4924 0 17.3333V30.6667C0 32.5076 1.79086 34 4 34C6.20914 34 8 32.5076 8 30.6667V17.3333Z" fill="#2EC4A5"/>
<path d="M22 4C22 1.79086 20.2091 0 18 0C15.7909 0 14 1.79086 14 4V44C14 46.2091 15.7909 48 18 48C20.2091 48 22 46.2091 22 44V4Z" fill="#2EC4A5"/>
<path d="M36 17.3333C36 15.4924 34.2091 14 32 14C29.7909 14 28 15.4924 28 17.3333V30.6667C28 32.5076 29.7909 34 32 34C34.2091 34 36 32.5076 36 30.6667V17.3333Z" fill="#2EC4A5"/>
</svg>
