<svg xmlns="http://www.w3.org/2000/svg" viewBox="0 0 512 512" width="512" height="512">
  <defs>
    <linearGradient id="g1" x1="0%" y1="0%" x2="100%" y2="100%">
      <stop offset="0%" style="stop-color:#06B6D4"/>
      <stop offset="50%" style="stop-color:#8B5CF6"/>
      <stop offset="100%" style="stop-color:#EC4899"/>
    </linearGradient>
  </defs>
  <rect width="512" height="512" rx="110" fill="#0F0F1A"/>
  <!-- Large speech bubble with lightning bolt inside -->
  <g transform="translate(256,230)">
    <!-- Main bubble -->
    <path d="M-120,-110 Q-120,-130 -100,-130 L100,-130 Q120,-130 120,-110 L120,50 Q120,70 100,70 L-10,70 L-40,120 L-35,70 L-100,70 Q-120,70 -120,50 Z" fill="url(#g1)"/>
    <!-- Lightning bolt -->
    <polygon points="15,-85 -30,-10 10,-10 -15,75 50,-20 5,-20 35,-85" fill="#0F0F1A"/>
    <!-- Small glow dots -->
    <circle cx="-85" cy="-95" r="6" fill="white" opacity="0.4"/>
    <circle cx="90" cy="-100" r="4" fill="white" opacity="0.3"/>
  </g>
</svg>
